%TF.GenerationSoftware,KiCad,Pcbnew,8.0.5*%
%TF.CreationDate,2024-11-18T10:32:16-03:00*%
%TF.ProjectId,PCB_Luva,5043425f-4c75-4766-912e-6b696361645f,rev?*%
%TF.SameCoordinates,Original*%
%TF.FileFunction,Profile,NP*%
%FSLAX46Y46*%
G04 Gerber Fmt 4.6, Leading zero omitted, Abs format (unit mm)*
G04 Created by KiCad (PCBNEW 8.0.5) date 2024-11-18 10:32:16*
%MOMM*%
%LPD*%
G01*
G04 APERTURE LIST*
%TA.AperFunction,Profile*%
%ADD10C,0.050000*%
%TD*%
G04 APERTURE END LIST*
D10*
X100250000Y-76721826D02*
G75*
G02*
X108028174Y-68943650I7778170J6D01*
G01*
X108028174Y-138028174D02*
G75*
G02*
X100250026Y-130250000I26J7778174D01*
G01*
X165221826Y-138028174D02*
X108028174Y-138028174D01*
X106060660Y-131250000D02*
G75*
G02*
X103939340Y-131250000I-1060660J0D01*
G01*
X103939340Y-131250000D02*
G75*
G02*
X106060660Y-131250000I1060660J0D01*
G01*
X106030776Y-134250000D02*
G75*
G02*
X103969224Y-134250000I-1030776J0D01*
G01*
X103969224Y-134250000D02*
G75*
G02*
X106030776Y-134250000I1030776J0D01*
G01*
X168310660Y-131250000D02*
G75*
G02*
X166189340Y-131250000I-1060660J0D01*
G01*
X166189340Y-131250000D02*
G75*
G02*
X168310660Y-131250000I1060660J0D01*
G01*
X104530776Y-82219224D02*
G75*
G02*
X102469224Y-82219224I-1030776J0D01*
G01*
X102469224Y-82219224D02*
G75*
G02*
X104530776Y-82219224I1030776J0D01*
G01*
X173000000Y-76750000D02*
X173000000Y-130250000D01*
X168280776Y-134250000D02*
G75*
G02*
X166219224Y-134250000I-1030776J0D01*
G01*
X166219224Y-134250000D02*
G75*
G02*
X168280776Y-134250000I1030776J0D01*
G01*
X170780776Y-82000000D02*
G75*
G02*
X168719224Y-82000000I-1030776J0D01*
G01*
X168719224Y-82000000D02*
G75*
G02*
X170780776Y-82000000I1030776J0D01*
G01*
X173000000Y-130250000D02*
G75*
G02*
X165221826Y-138028200I-7778200J0D01*
G01*
X108028174Y-68943652D02*
X165221826Y-68971826D01*
X170810660Y-79000000D02*
G75*
G02*
X168689340Y-79000000I-1060660J0D01*
G01*
X168689340Y-79000000D02*
G75*
G02*
X170810660Y-79000000I1060660J0D01*
G01*
X165221826Y-68971826D02*
G75*
G02*
X172999974Y-76750000I-26J-7778174D01*
G01*
X100250000Y-130250000D02*
X100250000Y-76721826D01*
X139560660Y-105719224D02*
G75*
G02*
X137439340Y-105719224I-1060660J0D01*
G01*
X137439340Y-105719224D02*
G75*
G02*
X139560660Y-105719224I1060660J0D01*
G01*
X139530776Y-108719224D02*
G75*
G02*
X137469224Y-108719224I-1030776J0D01*
G01*
X137469224Y-108719224D02*
G75*
G02*
X139530776Y-108719224I1030776J0D01*
G01*
X104560660Y-79219224D02*
G75*
G02*
X102439340Y-79219224I-1060660J0D01*
G01*
X102439340Y-79219224D02*
G75*
G02*
X104560660Y-79219224I1060660J0D01*
G01*
M02*
