M48
; DRILL file {KiCad 8.0.5} date 2024-11-18T10:33:06-0300
; FORMAT={-:-/ absolute / inch / decimal}
; #@! TF.CreationDate,2024-11-18T10:33:06-03:00
; #@! TF.GenerationSoftware,Kicad,Pcbnew,8.0.5
; #@! TF.FileFunction,Plated,1,2,PTH
FMAT,2
INCH
; #@! TA.AperFunction,Plated,PTH,ComponentDrill
T1C0.0300
; #@! TA.AperFunction,Plated,PTH,ComponentDrill
T2C0.0315
; #@! TA.AperFunction,Plated,PTH,ComponentDrill
T3C0.0354
; #@! TA.AperFunction,Plated,PTH,ComponentDrill
T4C0.0374
; #@! TA.AperFunction,Plated,PTH,ComponentDrill
T5C0.0394
%
G90
G05
T1
X5.1711Y-3.6665
X5.1711Y-3.7665
X5.1711Y-3.8665
X5.1711Y-3.9665
X5.1711Y-4.0665
X5.1711Y-4.1665
X5.1711Y-4.2665
X5.1711Y-4.3665
X5.1711Y-4.4665
X5.1711Y-4.5665
X5.3211Y-4.8165
X5.4211Y-4.8165
X5.5211Y-4.8165
X5.6211Y-4.8165
X5.7211Y-4.8165
X5.8711Y-3.6665
X5.8711Y-3.7665
X5.8711Y-3.8665
X5.8711Y-3.9665
X5.8711Y-4.0665
X5.8711Y-4.1665
X5.8711Y-4.2665
X5.8711Y-4.3665
X5.8711Y-4.4665
X5.8711Y-4.5665
X6.0144Y-4.4581
X6.0144Y-4.5581
X6.0144Y-4.6581
X6.0144Y-4.7581
X6.0144Y-4.8581
X6.0144Y-4.9581
X6.0144Y-5.0581
X6.0144Y-5.1581
T2
X4.2555Y-3.3268
X4.2555Y-3.6417
X4.2555Y-3.9665
X4.2555Y-4.2913
X4.6555Y-3.3268
X4.6555Y-3.6417
X4.6555Y-3.9665
X4.6555Y-4.2913
X5.1378Y-3.0283
X5.1378Y-3.4283
X5.2756Y-3.0283
X5.2756Y-3.4283
X5.4134Y-3.0315
X5.4134Y-3.4315
X5.5512Y-3.0283
X5.5512Y-3.4283
X5.9976Y-3.9764
X6.0008Y-4.1142
X6.0008Y-4.2618
X6.3976Y-3.9764
X6.4008Y-4.1142
X6.4008Y-4.2618
T3
X4.8124Y-3.6417
X4.8213Y-3.3268
X4.8213Y-3.9665
X4.8213Y-4.2913
X4.9124Y-3.6417
X4.9213Y-3.3268
X4.9213Y-3.9665
X4.9213Y-4.2913
X5.9941Y-3.7402
X6.1122Y-3.7402
X6.2303Y-3.7402
X6.3484Y-3.7402
T4
X5.374Y-5.0098
X5.4724Y-5.0098
X5.5709Y-5.0098
X5.6693Y-5.0098
T5
X4.1437Y-4.9213
X4.2421Y-2.8642
X4.6654Y-4.7933
X4.9508Y-2.8543
X4.9803Y-4.7933
X5.7283Y-2.8543
X6.5453Y-2.8642
M30
